<svg width="36" height="42" viewBox="0 0 36 42" fill="none" xmlns="http://www.w3.org/2000/svg">
<path d="M36 0H0V42L18 30.7674L36 42V0Z" fill="#DE7800"/>
<path d="M12.6416 16.7105C13.5718 15.2041 14.4852 13.7249 15.3993 12.2452C16.1042 11.1041 16.8086 9.96295 17.5135 8.82181C17.7767 8.39497 18.0922 8.39265 18.3535 8.81542C19.9333 11.3735 21.5131 13.9317 23.0929 16.4898C23.1346 16.5577 23.1788 16.6245 23.2323 16.7076C23.2989 16.6507 23.3568 16.6054 23.4103 16.556C24.8214 15.261 26.232 13.9648 27.645 12.6709C27.7154 12.6064 27.7956 12.5362 27.8852 12.5083C28.1702 12.4183 28.4073 12.6366 28.3594 12.9444C28.2343 13.7464 28.1024 14.5478 27.9742 15.3492C27.6706 17.2459 27.3669 19.1432 27.0633 21.0398C27.0035 21.4121 26.9451 21.7843 26.881 22.156C26.8393 22.3964 26.7167 22.4923 26.4579 22.4992C26.3956 22.501 26.3334 22.4992 26.2718 22.4992C20.7061 22.4992 15.1404 22.4992 9.57534 22.4992C9.1093 22.4992 9.0309 22.4452 8.96371 22.0277C8.62895 19.9452 8.29856 17.8615 7.9663 15.7784C7.82008 14.862 7.67261 13.9462 7.52577 13.0298C7.52141 13.0013 7.51457 12.9729 7.50959 12.9444C7.47786 12.7632 7.52017 12.6041 7.70746 12.5211C7.89101 12.4398 8.04718 12.5013 8.18905 12.6326C9.11615 13.4886 10.047 14.3411 10.9766 15.1948C11.4743 15.6518 11.9734 16.1088 12.4717 16.5653C12.5203 16.61 12.5725 16.6512 12.6429 16.7105H12.6416Z" fill="#151619"/>
</svg>
