<svg width="14" height="14" viewBox="0 0 14 14" fill="none" xmlns="http://www.w3.org/2000/svg">
<path fill-rule="evenodd" clip-rule="evenodd" d="M7 0C3.136 0 0 3.136 0 7C0 10.864 3.136 14 7 14C10.864 14 14 10.864 14 7C14 3.136 10.864 0 7 0ZM7 2.1C8.162 2.1 9.1 3.038 9.1 4.2C9.1 5.362 8.162 6.3 7 6.3C5.838 6.3 4.9 5.362 4.9 4.2C4.9 3.038 5.838 2.1 7 2.1ZM2.8 9.786C3.25974 10.4791 3.88386 11.0476 4.61669 11.4409C5.34952 11.8342 6.1683 12.04 7 12.04C7.8317 12.04 8.65048 11.8342 9.38331 11.4409C10.1161 11.0476 10.7403 10.4791 11.2 9.786C11.179 8.393 8.393 7.63 7 7.63C5.6 7.63 2.821 8.393 2.8 9.786Z" fill="white"/>
</svg>
