<svg width="14" height="14" viewBox="0 0 14 14" fill="none" xmlns="http://www.w3.org/2000/svg">
<path fill-rule="evenodd" clip-rule="evenodd" d="M12.0604 7C12.0604 7.238 12.0394 7.462 12.0114 7.686L13.4884 8.841C13.6214 8.946 13.6564 9.135 13.5724 9.289L12.1724 11.711C12.0884 11.865 11.9064 11.928 11.7454 11.865L10.0024 11.165C9.6384 11.438 9.2464 11.676 8.8194 11.851L8.5534 13.706C8.5324 13.874 8.3854 14 8.2104 14H5.4104C5.2354 14 5.0884 13.874 5.0674 13.706L4.8014 11.851C4.3744 11.676 3.9824 11.445 3.6184 11.165L1.8754 11.865C1.7214 11.921 1.5324 11.865 1.4484 11.711L0.0483984 9.289C0.00729335 9.21642 -0.00682108 9.13164 0.00855104 9.04965C0.0239232 8.96767 0.0677916 8.89376 0.132399 8.841L1.6094 7.686C1.5789 7.45857 1.56254 7.22946 1.5604 7C1.5604 6.769 1.5814 6.538 1.6094 6.314L0.132399 5.159C0.066337 5.10729 0.0213717 5.03329 0.00591163 4.95084C-0.00954844 4.86839 0.00555531 4.78313 0.0483984 4.711L1.4484 2.289C1.5324 2.135 1.7144 2.072 1.8754 2.135L3.6184 2.835C3.9824 2.562 4.3744 2.324 4.8014 2.149L5.0674 0.294C5.0884 0.126 5.2354 0 5.4104 0H8.2104C8.3854 0 8.5324 0.126 8.5534 0.294L8.8194 2.149C9.2464 2.324 9.6384 2.555 10.0024 2.835L11.7454 2.135C11.8994 2.079 12.0884 2.135 12.1724 2.289L13.5724 4.711C13.6564 4.865 13.6214 5.054 13.4884 5.159L12.0114 6.314C12.0394 6.538 12.0604 6.762 12.0604 7ZM4.3604 7C4.3604 8.351 5.4594 9.45 6.8104 9.45C8.1614 9.45 9.2604 8.351 9.2604 7C9.2604 5.649 8.1614 4.55 6.8104 4.55C5.4594 4.55 4.3604 5.649 4.3604 7Z" fill="white"/>
</svg>
