<?xml version="1.0" encoding="utf-8"?>
<!-- Generator: Adobe Illustrator 27.8.0, SVG Export Plug-In . SVG Version: 6.00 Build 0)  -->
<svg version="1.1" id="Calque_1" xmlns="http://www.w3.org/2000/svg" xmlns:xlink="http://www.w3.org/1999/xlink" x="0px" y="0px"
	 viewBox="0 0 36 42" style="enable-background:new 0 0 36 42;" xml:space="preserve">
<style type="text/css">
	.st0{fill:#DE7800;}
</style>
<path class="st0" d="M12.6,16.7c0.9-1.5,1.8-3,2.8-4.5c0.7-1.1,1.4-2.3,2.1-3.4c0.3-0.4,0.6-0.4,0.8,0c1.6,2.6,3.2,5.1,4.7,7.7
	c0,0.1,0.1,0.1,0.1,0.2c0.1-0.1,0.1-0.1,0.2-0.2c1.4-1.3,2.8-2.6,4.2-3.9c0.1-0.1,0.2-0.1,0.2-0.2c0.3-0.1,0.5,0.1,0.5,0.4
	c-0.1,0.8-0.3,1.6-0.4,2.4c-0.3,1.9-0.6,3.8-0.9,5.7c-0.1,0.4-0.1,0.7-0.2,1.1c0,0.2-0.2,0.3-0.4,0.3c-0.1,0-0.1,0-0.2,0
	c-5.6,0-11.1,0-16.7,0C9.1,22.5,9,22.4,9,22c-0.3-2.1-0.7-4.2-1-6.2c-0.1-0.9-0.3-1.8-0.4-2.7c0,0,0-0.1,0-0.1c0-0.2,0-0.3,0.2-0.4
	c0.2-0.1,0.3,0,0.5,0.1c0.9,0.9,1.9,1.7,2.8,2.6c0.5,0.5,1,0.9,1.5,1.4C12.5,16.6,12.6,16.7,12.6,16.7L12.6,16.7z M36,0H0v42
	l18-11.2L36,42V0z"/>
</svg>
