<svg width="11" height="15" viewBox="0 0 11 15" fill="none" xmlns="http://www.w3.org/2000/svg">
<g id="Group 1">
<path id="Vector" d="M0.5 14.5H10.5V12C10.4989 11.0721 10.1299 10.1824 9.4737 9.5263C8.81756 8.87015 7.92793 8.50106 7 8.5H4C3.07207 8.50106 2.18244 8.87015 1.5263 9.5263C0.870148 10.1824 0.501059 11.0721 0.5 12V14.5Z" fill="#737A8C"/>
<path id="Vector_2" d="M2 4C2 4.92826 2.36875 5.8185 3.02513 6.47487C3.6815 7.13125 4.57174 7.5 5.5 7.5C6.42826 7.5 7.3185 7.13125 7.97487 6.47487C8.63125 5.8185 9 4.92826 9 4C9 3.07174 8.63125 2.1815 7.97487 1.52513C7.3185 0.868749 6.42826 0.5 5.5 0.5C4.57174 0.5 3.6815 0.868749 3.02513 1.52513C2.36875 2.1815 2 3.07174 2 4Z" fill="#737A8C"/>
</g>
</svg>
